<svg width="174" height="69" viewBox="0 0 174 69" fill="none" xmlns="http://www.w3.org/2000/svg">
<path d="M52.52 54C52.1167 54 51.7866 53.8717 51.5299 53.615C51.3099 53.3583 51.2 53.0467 51.2 52.68V49.545C51.2 49.215 51.2732 48.9033 51.4199 48.61C51.6032 48.28 51.7867 48.005 51.97 47.785L66.0499 31.12H52.9599C52.5932 31.12 52.2817 31.01 52.025 30.79C51.7683 30.5333 51.6399 30.2033 51.6399 29.8V26.72C51.6399 26.3533 51.7683 26.0417 52.025 25.785C52.2817 25.5283 52.5932 25.4 52.9599 25.4H73.805C74.2083 25.4 74.5199 25.5283 74.7399 25.785C74.9966 26.0417 75.125 26.3533 75.125 26.72V30.075C75.125 30.405 75.0516 30.6983 74.9049 30.955C74.7582 31.2117 74.575 31.4867 74.355 31.78L60.6049 48.28H74.9599C75.3266 48.28 75.6382 48.4083 75.8949 48.665C76.1516 48.885 76.2799 49.1967 76.2799 49.6V52.68C76.2799 53.0467 76.1516 53.3583 75.8949 53.615C75.6382 53.8717 75.3266 54 74.9599 54H52.52ZM90.1538 54.55C88.2471 54.55 86.5238 54.1833 84.9838 53.45C83.4438 52.68 82.2153 51.6717 81.2987 50.425C80.4187 49.1417 79.9787 47.7117 79.9787 46.135C79.9787 43.5683 81.0054 41.5333 83.0588 40.03C85.1488 38.49 87.8988 37.4633 91.3088 36.95L98.8438 35.85V34.695C98.8438 33.155 98.4587 31.9633 97.6887 31.12C96.9187 30.2767 95.5987 29.855 93.7287 29.855C92.4087 29.855 91.3271 30.13 90.4838 30.68C89.6771 31.1933 89.0721 31.89 88.6688 32.77C88.3754 33.2467 87.9538 33.485 87.4038 33.485H83.0588C82.6554 33.485 82.3438 33.375 82.1238 33.155C81.9404 32.935 81.8487 32.6417 81.8487 32.275C81.8854 31.6883 82.1237 30.9733 82.5637 30.13C83.0037 29.2867 83.7004 28.48 84.6538 27.71C85.6071 26.9033 86.8353 26.225 88.3387 25.675C89.842 25.125 91.657 24.85 93.7837 24.85C96.0937 24.85 98.0371 25.1433 99.6138 25.73C101.227 26.28 102.51 27.0317 103.464 27.985C104.417 28.9383 105.114 30.0567 105.554 31.34C105.994 32.6233 106.214 33.98 106.214 35.41V52.68C106.214 53.0467 106.085 53.3583 105.829 53.615C105.572 53.8717 105.26 54 104.894 54H100.439C100.035 54 99.7053 53.8717 99.4487 53.615C99.2287 53.3583 99.1187 53.0467 99.1187 52.68V50.535C98.642 51.2317 98.0004 51.8917 97.1938 52.515C96.3871 53.1017 95.3971 53.5967 94.2238 54C93.0871 54.3667 91.7304 54.55 90.1538 54.55ZM92.0238 49.325C93.3071 49.325 94.4621 49.05 95.4888 48.5C96.5521 47.95 97.377 47.1067 97.9637 45.97C98.587 44.7967 98.8988 43.33 98.8988 41.57V40.415L93.3988 41.295C91.2354 41.625 89.6221 42.1567 88.5588 42.89C87.4954 43.6233 86.9637 44.5217 86.9637 45.585C86.9637 46.3917 87.2021 47.0883 87.6788 47.675C88.1921 48.225 88.8337 48.6467 89.6037 48.94C90.3737 49.1967 91.1804 49.325 92.0238 49.325ZM114.59 54C114.223 54 113.911 53.8717 113.655 53.615C113.398 53.3583 113.27 53.0467 113.27 52.68V26.775C113.27 26.3717 113.398 26.0417 113.655 25.785C113.911 25.5283 114.223 25.4 114.59 25.4H119.045C119.411 25.4 119.723 25.5283 119.98 25.785C120.273 26.0417 120.42 26.3717 120.42 26.775V29.03C121.263 27.8567 122.345 26.9583 123.665 26.335C125.021 25.7117 126.58 25.4 128.34 25.4H130.595C130.998 25.4 131.31 25.5283 131.53 25.785C131.786 26.0417 131.915 26.3533 131.915 26.72V30.68C131.915 31.0467 131.786 31.3583 131.53 31.615C131.31 31.8717 130.998 32 130.595 32H126.305C124.545 32 123.17 32.495 122.18 33.485C121.226 34.475 120.75 35.8317 120.75 37.555V52.68C120.75 53.0467 120.621 53.3583 120.365 53.615C120.108 53.8717 119.778 54 119.375 54H114.59ZM149.129 54C146.929 54 145.078 53.615 143.574 52.845C142.071 52.075 140.953 50.9383 140.219 49.435C139.486 47.895 139.119 45.9883 139.119 43.715V31.23H134.774C134.408 31.23 134.096 31.1017 133.839 30.845C133.583 30.5883 133.454 30.2767 133.454 29.91V26.72C133.454 26.3533 133.583 26.0417 133.839 25.785C134.096 25.5283 134.408 25.4 134.774 25.4H139.119V16.27C139.119 15.9033 139.229 15.5917 139.449 15.335C139.706 15.0783 140.036 14.95 140.439 14.95H144.894C145.261 14.95 145.573 15.0783 145.829 15.335C146.086 15.5917 146.214 15.9033 146.214 16.27V25.4H153.089C153.456 25.4 153.768 25.5283 154.024 25.785C154.281 26.0417 154.409 26.3533 154.409 26.72V29.91C154.409 30.2767 154.281 30.5883 154.024 30.845C153.768 31.1017 153.456 31.23 153.089 31.23H146.214V43.165C146.214 44.6683 146.471 45.8417 146.984 46.685C147.534 47.5283 148.469 47.95 149.789 47.95H153.584C153.951 47.95 154.263 48.0783 154.519 48.335C154.776 48.5917 154.904 48.9033 154.904 49.27V52.68C154.904 53.0467 154.776 53.3583 154.519 53.615C154.263 53.8717 153.951 54 153.584 54H149.129Z" fill="#333333"/>
<path d="M165.773 54.3711C164.706 54.3711 163.788 53.9935 163.02 53.2383C162.251 52.4701 161.867 51.5456 161.867 50.4648C161.867 49.3971 162.251 48.4857 163.02 47.7305C163.788 46.9622 164.706 46.5781 165.773 46.5781C166.841 46.5781 167.759 46.9622 168.527 47.7305C169.296 48.4857 169.68 49.3971 169.68 50.4648C169.68 51.181 169.497 51.8385 169.133 52.4375C168.781 53.0234 168.312 53.4922 167.727 53.8437C167.141 54.1953 166.49 54.3711 165.773 54.3711Z" fill="#333333"/>
<path d="M25 56C20.8373 56 17.0831 55.0417 13.7374 53.125C10.3917 51.1667 7.7657 48.4792 5.85942 45.0625C3.95314 41.6042 3 37.75 3 33.5C3 29.25 3.95314 25.4167 5.85942 22C7.7657 18.5417 10.3917 15.8542 13.7374 13.9375C17.0831 11.9792 20.8373 11 25 11C29.1627 11 32.9169 11.9792 36.2626 13.9375C39.6083 15.8542 42.2343 18.5208 44.1406 21.9375C46.0469 25.3542 47 29.2083 47 33.5C47 37.7917 46.0469 41.6458 44.1406 45.0625C42.2343 48.4792 39.6083 51.1667 36.2626 53.125C32.9169 55.0417 29.1627 56 25 56ZM25 48.875C27.7233 48.875 30.1742 48.2292 32.3528 46.9375C34.5314 45.6042 36.2432 43.7708 37.4881 41.4375C38.7329 39.0625 39.3554 36.4167 39.3554 33.5C39.3554 30.5833 38.7329 27.9583 37.4881 25.625C36.2432 23.25 34.5314 21.4167 32.3528 20.125C30.1742 18.7917 27.7233 18.125 25 18.125C22.2767 18.125 19.8258 18.7917 17.6472 20.125C15.4686 21.4167 13.7568 23.25 12.5119 25.625C11.2671 27.9583 10.6446 30.5833 10.6446 33.5C10.6446 36.4167 11.2671 39.0625 12.5119 41.4375C13.7568 43.7708 15.4686 45.6042 17.6472 46.9375C19.8258 48.2292 22.2767 48.875 25 48.875Z" fill="#333333"/>
<path d="M25.5 4V64" stroke="#333333" stroke-width="5"/>
</svg>
