<svg width="81" height="81" viewBox="0 0 81 81" fill="none" xmlns="http://www.w3.org/2000/svg">
<path d="M27.8555 40.1797H15.6484V30.4141C15.6484 25.0277 20.0277 20.6484 25.4141 20.6484H26.6347C28.6641 20.6484 30.2969 19.0158 30.2969 16.9862V9.66219C30.2969 7.63281 28.6642 6 26.6347 6H25.4141C11.9253 6 1 16.9253 1 30.4141V67.0352C1 71.0788 4.28063 74.3594 8.32422 74.3594H27.8555C31.8991 74.3594 35.1797 71.0788 35.1797 67.0352V47.5039C35.1797 43.4603 31.8991 40.1797 27.8555 40.1797Z" fill="#333333"/>
<path d="M71.8008 40.1797H59.5938V30.4141C59.5938 25.0277 63.973 20.6484 69.3594 20.6484H70.58C72.6094 20.6484 74.2422 19.0158 74.2422 16.9862V9.66219C74.2422 7.63281 72.6095 6 70.58 6H69.3594C55.8706 6 44.9453 16.9253 44.9453 30.4141V67.0352C44.9453 71.0788 48.2259 74.3594 52.2695 74.3594H71.8008C75.8444 74.3594 79.125 71.0788 79.125 67.0352V47.5039C79.125 43.4603 75.8444 40.1797 71.8008 40.1797Z" fill="#333333"/>
</svg>
