<svg width="24" height="25" viewBox="0 0 24 25" fill="none" xmlns="http://www.w3.org/2000/svg">
<path d="M1.5 5.75C1.5 5.94891 1.57902 6.13968 1.71967 6.28033C1.86032 6.42098 2.05109 6.5 2.25 6.5H21.75C21.9489 6.5 22.1397 6.42098 22.2803 6.28033C22.421 6.13968 22.5 5.94891 22.5 5.75C22.5 5.55109 22.421 5.36032 22.2803 5.21967C22.1397 5.07902 21.9489 5 21.75 5H2.25C2.05109 5 1.86032 5.07902 1.71967 5.21967C1.57902 5.36032 1.5 5.55109 1.5 5.75ZM5.25 11.75H21.75C21.9489 11.75 22.1397 11.829 22.2803 11.9697C22.421 12.1103 22.5 12.3011 22.5 12.5C22.5 12.6989 22.421 12.8897 22.2803 13.0303C22.1397 13.171 21.9489 13.25 21.75 13.25H5.25C5.05109 13.25 4.86032 13.171 4.71967 13.0303C4.57902 12.8897 4.5 12.6989 4.5 12.5C4.5 12.3011 4.57902 12.1103 4.71967 11.9697C4.86032 11.829 5.05109 11.75 5.25 11.75ZM12 18.5H21.75C21.9489 18.5 22.1397 18.579 22.2803 18.7197C22.421 18.8603 22.5 19.0511 22.5 19.25C22.5 19.4489 22.421 19.6397 22.2803 19.7803C22.1397 19.921 21.9489 20 21.75 20H12C11.8011 20 11.6103 19.921 11.4697 19.7803C11.329 19.6397 11.25 19.4489 11.25 19.25C11.25 19.0511 11.329 18.8603 11.4697 18.7197C11.6103 18.579 11.8011 18.5 12 18.5Z" fill="#333333"/>
</svg>
