<svg width="20" height="21" viewBox="0 0 20 21" fill="none" xmlns="http://www.w3.org/2000/svg">
<g clip-path="url(#clip0_11_29)">
<path d="M10 0.5C4.48625 0.5 0 4.98625 0 10.5C0 16.0138 4.48625 20.5 10 20.5C15.5138 20.5 20 16.0138 20 10.5C20 4.98625 15.5138 0.5 10 0.5ZM10 19.25C5.175 19.25 1.25 15.3237 1.25 10.5C1.25 5.675 5.175 1.75 10 1.75C14.8237 1.75 18.75 5.675 18.75 10.5C18.75 15.3237 14.8237 19.25 10 19.25Z" fill="#333333"/>
<path d="M10 3C9.475 3 8.9625 3.055 8.4675 3.1575C9.3775 4.4475 10.2037 5.79 10.9312 7.18125C12.3075 6.54 13.6025 5.7125 14.785 4.725C13.4862 3.6475 11.8187 3 10 3Z" fill="#333333"/>
<path d="M15.6763 5.60748C14.39 6.69123 12.975 7.58998 11.4725 8.29248C11.8013 8.97748 12.1063 9.67123 12.3888 10.3762C14.0488 10.035 15.7763 10.0037 17.4888 10.2875C17.4388 8.49998 16.7663 6.86998 15.6763 5.60748Z" fill="#333333"/>
<path d="M7.21251 3.54126C4.96126 4.44376 3.25376 6.40376 2.69876 8.81001C5.12626 8.91376 7.52876 8.50876 9.76501 7.65501C9.01376 6.22876 8.16251 4.85376 7.21251 3.54126Z" fill="#333333"/>
<path d="M10.325 8.78625C8.16 9.63 5.8475 10.09 3.49625 10.09C3.1725 10.09 2.8475 10.07 2.5225 10.0525C2.51375 10.2013 2.5 10.3488 2.5 10.5C2.5 12.3413 3.16625 14.0263 4.2675 15.3313C6.06875 13.095 8.49 11.4925 11.17 10.6875C10.9087 10.045 10.6262 9.4125 10.325 8.78625Z" fill="#333333"/>
<path d="M12.8475 11.56C13.4438 13.2225 13.9113 14.9313 14.2538 16.6738C15.9438 15.5075 17.1238 13.6663 17.42 11.5388C15.8875 11.2675 14.3388 11.28 12.8475 11.56Z" fill="#333333"/>
<path d="M11.62 11.85C9.1 12.5862 6.82375 14.0987 5.155 16.22C6.4625 17.3287 8.15125 18 10 18C11.11 18 12.1612 17.7525 13.1087 17.3187C12.765 15.4512 12.265 13.6237 11.62 11.85Z" fill="#333333"/>
</g>
<defs>
<clipPath id="clip0_11_29">
<rect width="20" height="20" fill="white" transform="translate(0 0.5)"/>
</clipPath>
</defs>
</svg>
