<svg width="32" height="32" viewBox="0 0 32 32" fill="none" xmlns="http://www.w3.org/2000/svg">
<g clip-path="url(#clip0_15_27)">
<path d="M16 0C7.178 0 0 7.178 0 16C0 24.822 7.178 32 16 32C24.822 32 32 24.822 32 16C32 7.178 24.822 0 16 0ZM16 30C8.28 30 2 23.718 2 16C2 8.28 8.28 2 16 2C23.718 2 30 8.28 30 16C30 23.718 23.718 30 16 30Z" fill="white"/>
<path d="M16 4C15.16 4 14.34 4.088 13.548 4.252C15.004 6.316 16.326 8.464 17.49 10.69C19.692 9.664 21.764 8.34 23.656 6.76C21.578 5.036 18.91 4 16 4Z" fill="white"/>
<path d="M25.082 8.17188C23.024 9.90587 20.76 11.3439 18.356 12.4679C18.882 13.5639 19.37 14.6739 19.822 15.8019C22.478 15.2559 25.242 15.2059 27.982 15.6599C27.902 12.7999 26.826 10.1919 25.082 8.17188Z" fill="white"/>
<path d="M11.54 4.86621C7.93799 6.31021 5.20599 9.44621 4.31799 13.2962C8.20199 13.4622 12.046 12.8142 15.624 11.4482C14.422 9.16621 13.06 6.96621 11.54 4.86621Z" fill="white"/>
<path d="M16.52 13.2578C13.056 14.6078 9.356 15.3438 5.594 15.3438C5.076 15.3438 4.556 15.3118 4.036 15.2838C4.022 15.5218 4 15.7578 4 15.9998C4 18.9458 5.066 21.6418 6.828 23.7298C9.71 20.1518 13.584 17.5878 17.872 16.2998C17.454 15.2718 17.002 14.2598 16.52 13.2578Z" fill="white"/>
<path d="M20.556 17.6962C21.51 20.3562 22.258 23.0902 22.806 25.8782C25.51 24.0122 27.398 21.0662 27.872 17.6622C25.42 17.2282 22.942 17.2482 20.556 17.6962Z" fill="white"/>
<path d="M18.592 18.1602C14.56 19.3382 10.918 21.7582 8.24805 25.1522C10.34 26.9262 13.042 28.0002 16 28.0002C17.776 28.0002 19.458 27.6042 20.974 26.9102C20.424 23.9222 19.624 20.9982 18.592 18.1602Z" fill="white"/>
</g>
<defs>
<clipPath id="clip0_15_27">
<rect width="32" height="32" fill="white"/>
</clipPath>
</defs>
</svg>
